<?xml version="1.0" encoding="iso-8859-1"?>
<!-- Generator: Adobe Illustrator 19.0.0, SVG Export Plug-In . SVG Version: 6.00 Build 0)  -->
<svg version="1.1" id="Capa_1" xmlns="http://www.w3.org/2000/svg" xmlns:xlink="http://www.w3.org/1999/xlink" x="0px" y="0px"
	 viewBox="0 0 512 512" style="enable-background:new 0 0 512 512;" xml:space="preserve">
<path style="fill:#99BBFF;" d="M502,146.052V84.638c0-33.169-24.116-61.415-56.875-66.616L394.595,10h-4.89l-50.531,8.022
	C306.416,23.223,282.3,51.469,282.3,84.638v63.612l56.367-0.514v116.965h101.988V146.052L502,146.052L502,146.052z"/>
<path style="fill:#72D8FF;" d="M251.023,256h61.344v-61.413c0-33.169-24.116-61.415-56.874-66.616l-50.531-8.022h-23.057
	l-50.531,8.022c-32.758,5.2-56.874,33.447-56.874,66.616V256h62.74h0.001l0.001,118.649h113.78L251.023,256L251.023,256z"/>
<path style="fill:#FFFFFF;" d="M156.942,133.565v-13.617h-0.537h-38.463v13.617c0,23.741,19.36,42.987,43.242,42.987l0,0l0,0
	c7.019,0,13.64-1.673,19.5-4.622C166.602,164.842,156.942,150.329,156.942,133.565z"/>
<path style="fill:#6A80FF;" d="M204.425,133.565v-13.617h-47.483v13.617c0,16.764,9.66,31.277,23.742,38.365
	C194.766,164.842,204.425,150.329,204.425,133.565z"/>
<rect x="138" y="374.65" style="fill:#EDF2FA;" width="113.02" height="127.35"/>
<g>
	<rect x="339" y="264.7" style="fill:#D8D8E4;" width="101.66" height="127.35"/>
	<polygon style="fill:#D8D8E4;" points="214.811,277 189.735,292.974 164.659,277 164.659,252.667 214.811,252.667 	"/>
</g>
<path style="fill:#FFFFFF;" d="M343.741,23.617V10h-0.537h-35.63v13.617c0,23.741,19.36,42.987,43.242,42.987l0,0l0,0
	c6.458,0,12.58-1.418,18.083-3.941C354.052,55.856,343.741,40.938,343.741,23.617z"/>
<path style="fill:#6A80FF;" d="M394.058,23.617V10h-50.317v13.617c0,17.321,10.311,32.239,25.159,39.047
	C383.748,55.856,394.058,40.938,394.058,23.617z"/>
<rect x="164.66" y="216.33" style="fill:#FFC66C;" width="50.15" height="36.33"/>
<polygon style="fill:#D8D8E4;" points="401.192,178 376.116,193.974 351.04,178 351.04,153.667 401.192,153.667 "/>
<rect x="351.04" y="117.33" style="fill:#FF5D5D;" width="50.15" height="36.33"/>
<path d="M312.367,266c5.522,0,10-4.477,10-10v-61.413c0-18.42-6.587-36.28-18.547-50.29c-11.961-14.009-28.566-23.315-46.759-26.203
	l-50.531-8.022c0,0.004-0.001,0.007-0.002,0.011c-0.512-0.081-1.032-0.135-1.566-0.135h-87.557c-0.536,0-1.058,0.054-1.57,0.135
	c0-0.004,0.001-0.008,0.002-0.012l-50.531,8.022c-18.192,2.888-34.798,12.194-46.759,26.203C6.587,158.307,0,176.167,0,194.587V256
	c0,5.523,4.478,10,10,10h52.74v14c0,5.523,4.478,10,10,10s10-4.477,10-10v-71.667c0-5.523-4.478-10-10-10s-10,4.477-10,10V246H20
	v-51.413c0-28.421,20.373-52.284,48.442-56.74l39.5-6.271v1.989c0,29.217,23.884,52.987,53.241,52.987s53.242-23.77,53.242-52.987
	v-1.989l39.499,6.271c28.069,4.456,48.442,28.318,48.442,56.74V246h-41.345v-37.352c0-5.523-4.478-10-10-10s-10,4.477-10,10v156.001
	H82.742l-0.001-17.983c0-5.523-4.478-10-10-10c-5.523,0-10,4.478-10,10L62.742,502c0,5.523,4.478,10,10,10h178.28
	c5.522,0,10-4.477,10-10V266H312.367z M194.426,133.565c0,18.189-14.912,32.987-33.242,32.987
	c-18.329,0-33.241-14.798-33.241-32.987v-3.617h66.483V133.565z M241.022,492h-69.839v-57c0-5.523-4.478-10-10-10s-10,4.477-10,10
	v57H82.742V384.649h158.28V492z"/>
<path d="M184.361,301.408c1.639,1.044,3.506,1.566,5.373,1.566s3.734-0.522,5.373-1.566l25.076-15.974
	c2.882-1.836,4.627-5.017,4.627-8.434v-24.333v-36.333c0-5.523-4.478-10-10-10h-50.151c-5.522,0-10,4.477-10,10v36.333V277
	c0,3.417,1.745,6.598,4.627,8.434L184.361,301.408z M204.811,271.514l-15.076,9.604l-15.075-9.604v-8.847h30.151V271.514z
	 M174.659,226.333h30.151v16.333h-30.151V226.333z"/>
<path d="M493.453,34.349c-11.961-14.009-28.566-23.315-46.759-26.203l-50.531-8.022c0,0.004,0,0.007,0,0.011
	C395.651,0.054,395.13,0,394.595,0h-0.536h-86.484h-0.536c-0.534,0-1.054,0.054-1.564,0.134c-0.001-0.004-0.003-0.007-0.004-0.011
	L254.94,8.145c-18.192,2.888-34.798,12.194-46.759,26.203c-11.96,14.009-18.547,31.869-18.547,50.289V91.5c0,5.523,4.478,10,10,10
	s10-4.477,10-10v-6.862c0-28.421,20.373-52.283,48.442-56.739l39.499-6.271v1.989c0,29.217,23.885,52.987,53.242,52.987
	s53.242-23.77,53.242-52.987v-1.989l39.499,6.271C471.627,32.355,492,56.217,492,84.638v51.414h-25c-5.522,0-10,4.477-10,10
	s4.478,10,10,10h35c5.522,0,10-4.477,10-10V84.638C512,66.218,505.413,48.358,493.453,34.349z M384.059,23.617
	c0,18.189-14.912,32.987-33.242,32.987s-33.242-14.798-33.242-32.987V20h66.484V23.617z"/>
<path d="M440.66,85c-2.641,0-5.21,1.07-7.08,2.93c-1.86,1.86-2.92,4.44-2.92,7.07s1.06,5.21,2.92,7.07
	c1.859,1.86,4.439,2.93,7.08,2.93c2.63,0,5.21-1.07,7.069-2.93c1.86-1.86,2.931-4.44,2.931-7.07s-1.07-5.21-2.931-7.07
	C445.859,86.07,443.29,85,440.66,85z"/>
<path d="M440.655,122.5c-5.522,0-10,4.477-10,10v122.201H354.04c-5.522,0-10,4.477-10,10s4.478,10,10,10h76.615v107.351h-66.964V308
	c0-5.523-4.478-10-10-10s-10,4.477-10,10v74.052H286c-5.522,0-10,4.477-10,10s4.478,10,10,10h154.655c5.522,0,10-4.477,10-10V132.5
	C450.655,126.977,446.178,122.5,440.655,122.5z"/>
<path d="M345.667,186.434l25.076,15.974c1.639,1.044,3.506,1.566,5.373,1.566s3.734-0.522,5.373-1.566l25.076-15.974
	c2.882-1.836,4.627-5.017,4.627-8.434v-24.333v-36.333c0-5.523-4.478-10-10-10H351.04c-5.522,0-10,4.477-10,10v36.333V178
	C341.04,181.417,342.785,184.598,345.667,186.434z M391.192,172.514l-15.076,9.604l-15.076-9.604v-8.847h30.152L391.192,172.514
	L391.192,172.514z M361.04,127.333h30.152v16.333H361.04V127.333z"/>
<path d="M72.742,323.522c-0.018,0-0.034,0-0.053,0c-5.522-0.029-9.977-4.529-9.948-10.052l0.001-0.189
	c0.028-5.505,4.501-9.948,9.999-9.948c0.018,0,0.034,0,0.053,0c5.522,0.029,9.977,4.529,9.948,10.052l-0.001,0.189
	C82.713,319.079,78.24,323.522,72.742,323.522z"/>
<g>
</g>
<g>
</g>
<g>
</g>
<g>
</g>
<g>
</g>
<g>
</g>
<g>
</g>
<g>
</g>
<g>
</g>
<g>
</g>
<g>
</g>
<g>
</g>
<g>
</g>
<g>
</g>
<g>
</g>
</svg>
